<svg xmlns="http://www.w3.org/2000/svg" width="455pt" height="455pt" viewBox="-48 0 455 455.76" id="portfolio">
  <path fill="#fedb41" d="M359.922 110.012v305.75c0 22.09-17.91 40-40 40H40.379c-22.09 0-40-17.91-40-40V40c0-22.09 17.91-40 40-40h212.75l1 1.031-1 .969v88.012c0 11.039 8.945 19.996 19.988 20h84.805l1.027-1zm0 0"></path>
  <path fill="#00efd1" d="m358.95 109.012-1.028 1h-84.793c-11.04 0-19.996-8.95-20-19.989V2l1-.969zm0 0"></path>
  <path fill="#00acea" d="M207.672 251.059v12.652H69.129v-12.652c-.094-32.582 26.246-59.075 58.832-59.168h20.528c32.593-.094 59.09 26.25 59.183 58.84zM166.71 99.69c15.617 15.559 15.664 40.836.101 56.454-15.558 15.617-40.835 15.664-56.453.101-15.617-15.559-15.664-40.836-.101-56.453a39.91 39.91 0 0 1 28.273-11.742 39.66 39.66 0 0 1 28.18 11.64zm0 0"></path>
  <path fill="#00efd1" d="M292.172 391.79H61.969c-5.524 0-10-4.478-10-10 0-5.524 4.476-10 10-10h230.203c5.52 0 10 4.476 10 10 0 5.522-4.48 10-10 10zm-92.383-53.911H61.97c-5.524 0-10-4.477-10-10 0-5.524 4.476-10 10-10h137.82c5.524 0 10 4.476 10 10 0 5.523-4.476 10-10 10zm0 0"></path>
</svg>
